# xmcd
#
# Track frame offsets: 
#        150
#        16352
#        30335
#        45475
#        60661
#        75854
#        89241
#        102933
#        117450
#        133073
#        146619
#        161643
#        177836
#        193067
#
# Disc length: 2803 seconds
#
# Revision: 0
# Processed by: cddbd v1.5.2PL0 Copyright (c) Steve Scherf et al.
# Submitted via: ExactAudioCopy v1.1
#
DISCID=b80af10e
DTITLE=Luc Steeno - De Zomer Van Je Leven - CD 1
DYEAR=2018
DGENRE=Chanson
TTITLE0=De Zomer Van Je Leven
TTITLE1=Mijn Armen Om Je Schouders
TTITLE2=Kijk Me Niet Zo Aan
TTITLE3=Altijd, Altijd
TTITLE4=Ik Hou Van Het Leven
TTITLE5=Onder De Zon
TTITLE6=Luc Steeno and Lindsay - Je Verovert M'n Hart
TTITLE7=Echte Vrienden
TTITLE8=Ik Zal Wachten
TTITLE9=Hoe Doe Je Dat
TTITLE10=Mijn Alles
TTITLE11=Zij Is De Liefste Van De Wereld
TTITLE12=Altijd, Altijd (Remix)
TTITLE13=Speel Bouzouki
EXTD=
EXTT0=
EXTT1=
EXTT2=
EXTT3=
EXTT4=
EXTT5=
EXTT6=
EXTT7=
EXTT8=
EXTT9=
EXTT10=
EXTT11=
EXTT12=
EXTT13=
PLAYORDER=
